<?xml version="1.0" encoding="UTF-8" standalone="no"?>
<!DOCTYPE svg PUBLIC "-//W3C//DTD SVG 1.1//EN"
 "http://www.w3.org/Graphics/SVG/1.1/DTD/svg11.dtd">
<!-- Generated by graphviz version 2.44.1 (20200629.0846)
 -->
<!-- Title: dependencies Pages: 1 -->
<svg width="1314pt" height="284pt"
 viewBox="0.00 0.00 1314.00 284.00" xmlns="http://www.w3.org/2000/svg" xmlns:xlink="http://www.w3.org/1999/xlink">
<g id="graph0" class="graph" transform="scale(1 1) rotate(0) translate(4 280)">
<title>dependencies</title>
<polygon fill="white" stroke="transparent" points="-4,4 -4,-280 1310,-280 1310,4 -4,4"/>
<text text-anchor="start" x="632.01" y="-42.4" font-family="sans-serif" font-weight="bold" font-size="14.00">Legend</text>
<polygon fill="#ffffb3" stroke="transparent" points="419,-10 419,-30 439,-30 439,-10 419,-10"/>
<text text-anchor="start" x="442.63" y="-15.4" font-family="sans-serif" font-size="14.00"> &#160;Declarations</text>
<polygon fill="#8dd3c7" stroke="transparent" points="532,-10 532,-30 552,-30 552,-10 532,-10"/>
<text text-anchor="start" x="555.73" y="-15.4" font-family="sans-serif" font-size="14.00"> &#160;Module</text>
<polygon fill="#80b1d3" stroke="transparent" points="618,-10 618,-30 638,-30 638,-10 618,-10"/>
<text text-anchor="start" x="641.78" y="-15.4" font-family="sans-serif" font-size="14.00"> &#160;Bootstrap</text>
<polygon fill="#fdb462" stroke="transparent" points="715,-10 715,-30 735,-30 735,-10 715,-10"/>
<text text-anchor="start" x="738.67" y="-15.4" font-family="sans-serif" font-size="14.00"> &#160;Providers</text>
<polygon fill="#fb8072" stroke="transparent" points="811,-10 811,-30 831,-30 831,-10 811,-10"/>
<text text-anchor="start" x="834.73" y="-15.4" font-family="sans-serif" font-size="14.00"> &#160;Exports</text>
<g id="clust1" class="cluster">
<title>cluster_JanusModule</title>
<polygon fill="none" stroke="black" stroke-dasharray="1,5" points="8,-70 8,-268 1298,-268 1298,-70 8,-70"/>
</g>
<g id="clust2" class="cluster">
<title>cluster_JanusModule_declarations</title>
<polygon fill="none" stroke="black" points="16,-78 16,-130 1290,-130 1290,-78 16,-78"/>
</g>
<g id="clust11" class="cluster">
<title>cluster_JanusModule_exports</title>
<polygon fill="none" stroke="black" points="121,-208 121,-260 1200,-260 1200,-208 121,-208"/>
</g>
<!-- AudioBoxComponent -->
<g id="node1" class="node">
<title>AudioBoxComponent</title>
<polygon fill="#ffffb3" stroke="black" points="1281.67,-122 1142.33,-122 1142.33,-86 1281.67,-86 1281.67,-122"/>
<text text-anchor="middle" x="1212" y="-99.8" font-family="Times,serif" font-size="14.00">AudioBoxComponent</text>
</g>
<!-- JanusModule -->
<g id="node8" class="node">
<title>JanusModule</title>
<polygon fill="#8dd3c7" stroke="black" points="686.15,-187 683.15,-191 662.15,-191 659.15,-187 595.85,-187 595.85,-151 686.15,-151 686.15,-187"/>
<text text-anchor="middle" x="641" y="-164.8" font-family="Times,serif" font-size="14.00">JanusModule</text>
</g>
<!-- AudioBoxComponent&#45;&gt;JanusModule -->
<g id="edge1" class="edge">
<title>AudioBoxComponent&#45;&gt;JanusModule</title>
<path fill="none" stroke="black" d="M1166.88,-122.11C1166.88,-141.34 1166.88,-169 1166.88,-169 1166.88,-169 696.29,-169 696.29,-169"/>
<polygon fill="black" stroke="black" points="696.29,-165.5 686.29,-169 696.29,-172.5 696.29,-165.5"/>
</g>
<!-- DefaultVideoRoomComponent -->
<g id="node2" class="node">
<title>DefaultVideoRoomComponent</title>
<polygon fill="#ffffb3" stroke="black" points="1123.75,-122 932.25,-122 932.25,-86 1123.75,-86 1123.75,-122"/>
<text text-anchor="middle" x="1028" y="-99.8" font-family="Times,serif" font-size="14.00">DefaultVideoRoomComponent</text>
</g>
<!-- DefaultVideoRoomComponent&#45;&gt;JanusModule -->
<g id="edge2" class="edge">
<title>DefaultVideoRoomComponent&#45;&gt;JanusModule</title>
<path fill="none" stroke="black" d="M981.38,-122.02C981.38,-139.37 981.38,-163 981.38,-163 981.38,-163 696.2,-163 696.2,-163"/>
<polygon fill="black" stroke="black" points="696.2,-159.5 686.2,-163 696.2,-166.5 696.2,-159.5"/>
</g>
<!-- DeviceSelectorComponent -->
<g id="node3" class="node">
<title>DeviceSelectorComponent</title>
<polygon fill="#ffffb3" stroke="black" points="914.34,-122 747.66,-122 747.66,-86 914.34,-86 914.34,-122"/>
<text text-anchor="middle" x="831" y="-99.8" font-family="Times,serif" font-size="14.00">DeviceSelectorComponent</text>
</g>
<!-- DeviceSelectorComponent&#45;&gt;JanusModule -->
<g id="edge3" class="edge">
<title>DeviceSelectorComponent&#45;&gt;JanusModule</title>
<path fill="none" stroke="black" d="M782.38,-122.24C782.38,-137.57 782.38,-157 782.38,-157 782.38,-157 696.51,-157 696.51,-157"/>
<polygon fill="black" stroke="black" points="696.51,-153.5 686.51,-157 696.51,-160.5 696.51,-153.5"/>
</g>
<!-- JanusVideoroomComponent -->
<g id="node4" class="node">
<title>JanusVideoroomComponent</title>
<polygon fill="#ffffb3" stroke="black" points="729.2,-122 552.8,-122 552.8,-86 729.2,-86 729.2,-122"/>
<text text-anchor="middle" x="641" y="-99.8" font-family="Times,serif" font-size="14.00">JanusVideoroomComponent</text>
</g>
<!-- JanusVideoroomComponent&#45;&gt;JanusModule -->
<g id="edge4" class="edge">
<title>JanusVideoroomComponent&#45;&gt;JanusModule</title>
<path fill="none" stroke="black" d="M641,-122.11C641,-122.11 641,-140.99 641,-140.99"/>
<polygon fill="black" stroke="black" points="637.5,-140.99 641,-150.99 644.5,-140.99 637.5,-140.99"/>
</g>
<!-- SelfVideoComponent -->
<g id="node5" class="node">
<title>SelfVideoComponent</title>
<polygon fill="#ffffb3" stroke="black" points="535.09,-122 396.91,-122 396.91,-86 535.09,-86 535.09,-122"/>
<text text-anchor="middle" x="466" y="-99.8" font-family="Times,serif" font-size="14.00">SelfVideoComponent</text>
</g>
<!-- SelfVideoComponent&#45;&gt;JanusModule -->
<g id="edge5" class="edge">
<title>SelfVideoComponent&#45;&gt;JanusModule</title>
<path fill="none" stroke="black" d="M492.1,-122.24C492.1,-137.57 492.1,-157 492.1,-157 492.1,-157 585.52,-157 585.52,-157"/>
<polygon fill="black" stroke="black" points="585.52,-160.5 595.52,-157 585.52,-153.5 585.52,-160.5"/>
</g>
<!-- VideoBoxComponent -->
<g id="node6" class="node">
<title>VideoBoxComponent</title>
<polygon fill="#ffffb3" stroke="black" points="379.38,-122 240.62,-122 240.62,-86 379.38,-86 379.38,-122"/>
<text text-anchor="middle" x="310" y="-99.8" font-family="Times,serif" font-size="14.00">VideoBoxComponent</text>
</g>
<!-- VideoBoxComponent&#45;&gt;JanusModule -->
<g id="edge6" class="edge">
<title>VideoBoxComponent&#45;&gt;JanusModule</title>
<path fill="none" stroke="black" d="M334.32,-122.02C334.32,-139.37 334.32,-163 334.32,-163 334.32,-163 585.75,-163 585.75,-163"/>
<polygon fill="black" stroke="black" points="585.75,-166.5 595.75,-163 585.75,-159.5 585.75,-166.5"/>
</g>
<!-- VideoRoomWrapperComponent -->
<g id="node7" class="node">
<title>VideoRoomWrapperComponent</title>
<polygon fill="#ffffb3" stroke="black" points="222.24,-122 23.76,-122 23.76,-86 222.24,-86 222.24,-122"/>
<text text-anchor="middle" x="123" y="-99.8" font-family="Times,serif" font-size="14.00">VideoRoomWrapperComponent</text>
</g>
<!-- VideoRoomWrapperComponent&#45;&gt;JanusModule -->
<g id="edge7" class="edge">
<title>VideoRoomWrapperComponent&#45;&gt;JanusModule</title>
<path fill="none" stroke="black" d="M175.59,-122.11C175.59,-141.34 175.59,-169 175.59,-169 175.59,-169 585.53,-169 585.53,-169"/>
<polygon fill="black" stroke="black" points="585.53,-172.5 595.53,-169 585.53,-165.5 585.53,-172.5"/>
</g>
<!-- AudioBoxComponent  -->
<g id="node9" class="node">
<title>AudioBoxComponent </title>
<polygon fill="#fb8072" stroke="black" points="1191.67,-252 1048.33,-252 1048.33,-216 1191.67,-216 1191.67,-252"/>
<text text-anchor="middle" x="1120" y="-229.8" font-family="Times,serif" font-size="14.00">AudioBoxComponent </text>
</g>
<!-- JanusModule&#45;&gt;AudioBoxComponent  -->
<g id="edge8" class="edge">
<title>JanusModule&#45;&gt;AudioBoxComponent </title>
<path fill="none" stroke="black" stroke-dasharray="5,2" d="M686.55,-175C800,-175 1086.15,-175 1086.15,-175 1086.15,-175 1086.15,-205.98 1086.15,-205.98"/>
<polygon fill="black" stroke="black" points="1082.65,-205.98 1086.15,-215.98 1089.65,-205.98 1082.65,-205.98"/>
</g>
<!-- DefaultVideoRoomComponent  -->
<g id="node10" class="node">
<title>DefaultVideoRoomComponent </title>
<polygon fill="#fb8072" stroke="black" points="1030.75,-252 835.25,-252 835.25,-216 1030.75,-216 1030.75,-252"/>
<text text-anchor="middle" x="933" y="-229.8" font-family="Times,serif" font-size="14.00">DefaultVideoRoomComponent </text>
</g>
<!-- JanusModule&#45;&gt;DefaultVideoRoomComponent  -->
<g id="edge9" class="edge">
<title>JanusModule&#45;&gt;DefaultVideoRoomComponent </title>
<path fill="none" stroke="black" stroke-dasharray="5,2" d="M686.38,-181C754.39,-181 874.9,-181 874.9,-181 874.9,-181 874.9,-205.76 874.9,-205.76"/>
<polygon fill="black" stroke="black" points="871.4,-205.76 874.9,-215.76 878.4,-205.76 871.4,-205.76"/>
</g>
<!-- DeviceSelectorComponent  -->
<g id="node11" class="node">
<title>DeviceSelectorComponent </title>
<polygon fill="#fb8072" stroke="black" points="817.34,-252 646.66,-252 646.66,-216 817.34,-216 817.34,-252"/>
<text text-anchor="middle" x="732" y="-229.8" font-family="Times,serif" font-size="14.00">DeviceSelectorComponent </text>
</g>
<!-- JanusModule&#45;&gt;DeviceSelectorComponent  -->
<g id="edge10" class="edge">
<title>JanusModule&#45;&gt;DeviceSelectorComponent </title>
<path fill="none" stroke="black" stroke-dasharray="5,2" d="M666.58,-187.11C666.58,-187.11 666.58,-205.99 666.58,-205.99"/>
<polygon fill="black" stroke="black" points="663.08,-205.99 666.58,-215.99 670.08,-205.99 663.08,-205.99"/>
</g>
<!-- JanusVideoroomComponent  -->
<g id="node12" class="node">
<title>JanusVideoroomComponent </title>
<polygon fill="#fb8072" stroke="black" points="628.7,-252 449.3,-252 449.3,-216 628.7,-216 628.7,-252"/>
<text text-anchor="middle" x="539" y="-229.8" font-family="Times,serif" font-size="14.00">JanusVideoroomComponent </text>
</g>
<!-- JanusModule&#45;&gt;JanusVideoroomComponent  -->
<g id="edge11" class="edge">
<title>JanusModule&#45;&gt;JanusVideoroomComponent </title>
<path fill="none" stroke="black" stroke-dasharray="5,2" d="M612.26,-187.11C612.26,-187.11 612.26,-205.99 612.26,-205.99"/>
<polygon fill="black" stroke="black" points="608.76,-205.99 612.26,-215.99 615.76,-205.99 608.76,-205.99"/>
</g>
<!-- SelfVideoComponent  -->
<g id="node13" class="node">
<title>SelfVideoComponent </title>
<polygon fill="#fb8072" stroke="black" points="430.59,-252 289.41,-252 289.41,-216 430.59,-216 430.59,-252"/>
<text text-anchor="middle" x="360" y="-229.8" font-family="Times,serif" font-size="14.00">SelfVideoComponent </text>
</g>
<!-- JanusModule&#45;&gt;SelfVideoComponent  -->
<g id="edge12" class="edge">
<title>JanusModule&#45;&gt;SelfVideoComponent </title>
<path fill="none" stroke="black" stroke-dasharray="5,2" d="M595.58,-181C529.3,-181 413.88,-181 413.88,-181 413.88,-181 413.88,-205.76 413.88,-205.76"/>
<polygon fill="black" stroke="black" points="410.38,-205.76 413.88,-215.76 417.38,-205.76 410.38,-205.76"/>
</g>
<!-- VideoBoxComponent  -->
<g id="node14" class="node">
<title>VideoBoxComponent </title>
<polygon fill="#fb8072" stroke="black" points="271.38,-252 128.62,-252 128.62,-216 271.38,-216 271.38,-252"/>
<text text-anchor="middle" x="200" y="-229.8" font-family="Times,serif" font-size="14.00">VideoBoxComponent </text>
</g>
<!-- JanusModule&#45;&gt;VideoBoxComponent  -->
<g id="edge13" class="edge">
<title>JanusModule&#45;&gt;VideoBoxComponent </title>
<path fill="none" stroke="black" stroke-dasharray="5,2" d="M595.69,-175C493.88,-175 255.88,-175 255.88,-175 255.88,-175 255.88,-205.98 255.88,-205.98"/>
<polygon fill="black" stroke="black" points="252.38,-205.98 255.88,-215.98 259.38,-205.98 252.38,-205.98"/>
</g>
</g>
</svg>
