<?xml version="1.0" encoding="UTF-8" standalone="no"?>
<!DOCTYPE svg PUBLIC "-//W3C//DTD SVG 1.1//EN"
 "http://www.w3.org/Graphics/SVG/1.1/DTD/svg11.dtd">
<!-- Generated by graphviz version 2.44.1 (20200629.0846)
 -->
<!-- Title: dependencies Pages: 1 -->
<svg width="1119pt" height="284pt"
 viewBox="0.00 0.00 1119.00 284.00" xmlns="http://www.w3.org/2000/svg" xmlns:xlink="http://www.w3.org/1999/xlink">
<g id="graph0" class="graph" transform="scale(1 1) rotate(0) translate(4 280)">
<title>dependencies</title>
<polygon fill="white" stroke="transparent" points="-4,4 -4,-280 1115,-280 1115,4 -4,4"/>
<text text-anchor="start" x="534.51" y="-42.4" font-family="sans-serif" font-weight="bold" font-size="14.00">Legend</text>
<polygon fill="#ffffb3" stroke="transparent" points="321.5,-10 321.5,-30 341.5,-30 341.5,-10 321.5,-10"/>
<text text-anchor="start" x="345.13" y="-15.4" font-family="sans-serif" font-size="14.00"> &#160;Declarations</text>
<polygon fill="#8dd3c7" stroke="transparent" points="434.5,-10 434.5,-30 454.5,-30 454.5,-10 434.5,-10"/>
<text text-anchor="start" x="458.23" y="-15.4" font-family="sans-serif" font-size="14.00"> &#160;Module</text>
<polygon fill="#80b1d3" stroke="transparent" points="520.5,-10 520.5,-30 540.5,-30 540.5,-10 520.5,-10"/>
<text text-anchor="start" x="544.28" y="-15.4" font-family="sans-serif" font-size="14.00"> &#160;Bootstrap</text>
<polygon fill="#fdb462" stroke="transparent" points="617.5,-10 617.5,-30 637.5,-30 637.5,-10 617.5,-10"/>
<text text-anchor="start" x="641.17" y="-15.4" font-family="sans-serif" font-size="14.00"> &#160;Providers</text>
<polygon fill="#fb8072" stroke="transparent" points="713.5,-10 713.5,-30 733.5,-30 733.5,-10 713.5,-10"/>
<text text-anchor="start" x="737.23" y="-15.4" font-family="sans-serif" font-size="14.00"> &#160;Exports</text>
<g id="clust1" class="cluster">
<title>cluster_JanusModule</title>
<polygon fill="none" stroke="black" stroke-dasharray="1,5" points="8,-70 8,-268 1103,-268 1103,-70 8,-70"/>
</g>
<g id="clust2" class="cluster">
<title>cluster_JanusModule_declarations</title>
<polygon fill="none" stroke="black" points="29,-78 29,-130 1086,-130 1086,-78 29,-78"/>
</g>
<g id="clust10" class="cluster">
<title>cluster_JanusModule_exports</title>
<polygon fill="none" stroke="black" points="16,-208 16,-260 1095,-260 1095,-208 16,-208"/>
</g>
<!-- AudioBoxComponent -->
<g id="node1" class="node">
<title>AudioBoxComponent</title>
<polygon fill="#ffffb3" stroke="black" points="1077.67,-122 938.33,-122 938.33,-86 1077.67,-86 1077.67,-122"/>
<text text-anchor="middle" x="1008" y="-99.8" font-family="Times,serif" font-size="14.00">AudioBoxComponent</text>
</g>
<!-- JanusModule -->
<g id="node7" class="node">
<title>JanusModule</title>
<polygon fill="#8dd3c7" stroke="black" points="487.15,-187 484.15,-191 463.15,-191 460.15,-187 396.85,-187 396.85,-151 487.15,-151 487.15,-187"/>
<text text-anchor="middle" x="442" y="-164.8" font-family="Times,serif" font-size="14.00">JanusModule</text>
</g>
<!-- AudioBoxComponent&#45;&gt;JanusModule -->
<g id="edge1" class="edge">
<title>AudioBoxComponent&#45;&gt;JanusModule</title>
<path fill="none" stroke="black" d="M1033.03,-122.22C1033.03,-140.83 1033.03,-167 1033.03,-167 1033.03,-167 497.4,-167 497.4,-167"/>
<polygon fill="black" stroke="black" points="497.4,-163.5 487.4,-167 497.4,-170.5 497.4,-163.5"/>
</g>
<!-- DefaultVideoRoomComponent -->
<g id="node2" class="node">
<title>DefaultVideoRoomComponent</title>
<polygon fill="#ffffb3" stroke="black" points="919.75,-122 728.25,-122 728.25,-86 919.75,-86 919.75,-122"/>
<text text-anchor="middle" x="824" y="-99.8" font-family="Times,serif" font-size="14.00">DefaultVideoRoomComponent</text>
</g>
<!-- DefaultVideoRoomComponent&#45;&gt;JanusModule -->
<g id="edge2" class="edge">
<title>DefaultVideoRoomComponent&#45;&gt;JanusModule</title>
<path fill="none" stroke="black" d="M856.71,-122.03C856.71,-139.06 856.71,-162 856.71,-162 856.71,-162 497.17,-162 497.17,-162"/>
<polygon fill="black" stroke="black" points="497.17,-158.5 487.17,-162 497.17,-165.5 497.17,-158.5"/>
</g>
<!-- DeviceSelectorComponent -->
<g id="node3" class="node">
<title>DeviceSelectorComponent</title>
<polygon fill="#ffffb3" stroke="black" points="710.34,-122 543.66,-122 543.66,-86 710.34,-86 710.34,-122"/>
<text text-anchor="middle" x="627" y="-99.8" font-family="Times,serif" font-size="14.00">DeviceSelectorComponent</text>
</g>
<!-- DeviceSelectorComponent&#45;&gt;JanusModule -->
<g id="edge3" class="edge">
<title>DeviceSelectorComponent&#45;&gt;JanusModule</title>
<path fill="none" stroke="black" d="M654.81,-122.24C654.81,-137.57 654.81,-157 654.81,-157 654.81,-157 497.39,-157 497.39,-157"/>
<polygon fill="black" stroke="black" points="497.39,-153.5 487.39,-157 497.39,-160.5 497.39,-153.5"/>
</g>
<!-- JanusVideoroomComponent -->
<g id="node4" class="node">
<title>JanusVideoroomComponent</title>
<polygon fill="#ffffb3" stroke="black" points="525.2,-122 348.8,-122 348.8,-86 525.2,-86 525.2,-122"/>
<text text-anchor="middle" x="437" y="-99.8" font-family="Times,serif" font-size="14.00">JanusVideoroomComponent</text>
</g>
<!-- JanusVideoroomComponent&#45;&gt;JanusModule -->
<g id="edge4" class="edge">
<title>JanusVideoroomComponent&#45;&gt;JanusModule</title>
<path fill="none" stroke="black" d="M442,-122.11C442,-122.11 442,-140.99 442,-140.99"/>
<polygon fill="black" stroke="black" points="438.5,-140.99 442,-150.99 445.5,-140.99 438.5,-140.99"/>
</g>
<!-- SelfVideoComponent -->
<g id="node5" class="node">
<title>SelfVideoComponent</title>
<polygon fill="#ffffb3" stroke="black" points="331.09,-122 192.91,-122 192.91,-86 331.09,-86 331.09,-122"/>
<text text-anchor="middle" x="262" y="-99.8" font-family="Times,serif" font-size="14.00">SelfVideoComponent</text>
</g>
<!-- SelfVideoComponent&#45;&gt;JanusModule -->
<g id="edge5" class="edge">
<title>SelfVideoComponent&#45;&gt;JanusModule</title>
<path fill="none" stroke="black" d="M281.52,-122.01C281.52,-138.05 281.52,-159 281.52,-159 281.52,-159 386.44,-159 386.44,-159"/>
<polygon fill="black" stroke="black" points="386.44,-162.5 396.44,-159 386.44,-155.5 386.44,-162.5"/>
</g>
<!-- VideoBoxComponent -->
<g id="node6" class="node">
<title>VideoBoxComponent</title>
<polygon fill="#ffffb3" stroke="black" points="175.38,-122 36.62,-122 36.62,-86 175.38,-86 175.38,-122"/>
<text text-anchor="middle" x="106" y="-99.8" font-family="Times,serif" font-size="14.00">VideoBoxComponent</text>
</g>
<!-- VideoBoxComponent&#45;&gt;JanusModule -->
<g id="edge6" class="edge">
<title>VideoBoxComponent&#45;&gt;JanusModule</title>
<path fill="none" stroke="black" d="M170.82,-122.27C170.82,-140.56 170.82,-166 170.82,-166 170.82,-166 386.61,-166 386.61,-166"/>
<polygon fill="black" stroke="black" points="386.61,-169.5 396.61,-166 386.61,-162.5 386.61,-169.5"/>
</g>
<!-- AudioBoxComponent  -->
<g id="node8" class="node">
<title>AudioBoxComponent </title>
<polygon fill="#fb8072" stroke="black" points="1086.67,-252 943.33,-252 943.33,-216 1086.67,-216 1086.67,-252"/>
<text text-anchor="middle" x="1015" y="-229.8" font-family="Times,serif" font-size="14.00">AudioBoxComponent </text>
</g>
<!-- JanusModule&#45;&gt;AudioBoxComponent  -->
<g id="edge7" class="edge">
<title>JanusModule&#45;&gt;AudioBoxComponent </title>
<path fill="none" stroke="black" stroke-dasharray="5,2" d="M487.16,-172C618.03,-172 988.22,-172 988.22,-172 988.22,-172 988.22,-205.73 988.22,-205.73"/>
<polygon fill="black" stroke="black" points="984.72,-205.73 988.22,-215.73 991.72,-205.73 984.72,-205.73"/>
</g>
<!-- DefaultVideoRoomComponent  -->
<g id="node9" class="node">
<title>DefaultVideoRoomComponent </title>
<polygon fill="#fb8072" stroke="black" points="925.75,-252 730.25,-252 730.25,-216 925.75,-216 925.75,-252"/>
<text text-anchor="middle" x="828" y="-229.8" font-family="Times,serif" font-size="14.00">DefaultVideoRoomComponent </text>
</g>
<!-- JanusModule&#45;&gt;DefaultVideoRoomComponent  -->
<g id="edge8" class="edge">
<title>JanusModule&#45;&gt;DefaultVideoRoomComponent </title>
<path fill="none" stroke="black" stroke-dasharray="5,2" d="M487.24,-177C582.18,-177 793.54,-177 793.54,-177 793.54,-177 793.54,-205.96 793.54,-205.96"/>
<polygon fill="black" stroke="black" points="790.04,-205.96 793.54,-215.96 797.04,-205.96 790.04,-205.96"/>
</g>
<!-- DeviceSelectorComponent  -->
<g id="node10" class="node">
<title>DeviceSelectorComponent </title>
<polygon fill="#fb8072" stroke="black" points="712.34,-252 541.66,-252 541.66,-216 712.34,-216 712.34,-252"/>
<text text-anchor="middle" x="627" y="-229.8" font-family="Times,serif" font-size="14.00">DeviceSelectorComponent </text>
</g>
<!-- JanusModule&#45;&gt;DeviceSelectorComponent  -->
<g id="edge9" class="edge">
<title>JanusModule&#45;&gt;DeviceSelectorComponent </title>
<path fill="none" stroke="black" stroke-dasharray="5,2" d="M487.47,-182C533.89,-182 599.19,-182 599.19,-182 599.19,-182 599.19,-205.81 599.19,-205.81"/>
<polygon fill="black" stroke="black" points="595.69,-205.81 599.19,-215.81 602.69,-205.81 595.69,-205.81"/>
</g>
<!-- JanusVideoroomComponent  -->
<g id="node11" class="node">
<title>JanusVideoroomComponent </title>
<polygon fill="#fb8072" stroke="black" points="523.7,-252 344.3,-252 344.3,-216 523.7,-216 523.7,-252"/>
<text text-anchor="middle" x="434" y="-229.8" font-family="Times,serif" font-size="14.00">JanusVideoroomComponent </text>
</g>
<!-- JanusModule&#45;&gt;JanusVideoroomComponent  -->
<g id="edge10" class="edge">
<title>JanusModule&#45;&gt;JanusVideoroomComponent </title>
<path fill="none" stroke="black" stroke-dasharray="5,2" d="M442,-187.11C442,-187.11 442,-205.99 442,-205.99"/>
<polygon fill="black" stroke="black" points="438.5,-205.99 442,-215.99 445.5,-205.99 438.5,-205.99"/>
</g>
<!-- SelfVideoComponent  -->
<g id="node12" class="node">
<title>SelfVideoComponent </title>
<polygon fill="#fb8072" stroke="black" points="325.59,-252 184.41,-252 184.41,-216 325.59,-216 325.59,-252"/>
<text text-anchor="middle" x="255" y="-229.8" font-family="Times,serif" font-size="14.00">SelfVideoComponent </text>
</g>
<!-- JanusModule&#45;&gt;SelfVideoComponent  -->
<g id="edge11" class="edge">
<title>JanusModule&#45;&gt;SelfVideoComponent </title>
<path fill="none" stroke="black" stroke-dasharray="5,2" d="M396.81,-180C336.51,-180 237.23,-180 237.23,-180 237.23,-180 237.23,-205.72 237.23,-205.72"/>
<polygon fill="black" stroke="black" points="233.73,-205.72 237.23,-215.72 240.73,-205.72 233.73,-205.72"/>
</g>
<!-- VideoBoxComponent  -->
<g id="node13" class="node">
<title>VideoBoxComponent </title>
<polygon fill="#fb8072" stroke="black" points="166.38,-252 23.62,-252 23.62,-216 166.38,-216 166.38,-252"/>
<text text-anchor="middle" x="95" y="-229.8" font-family="Times,serif" font-size="14.00">VideoBoxComponent </text>
</g>
<!-- JanusModule&#45;&gt;VideoBoxComponent  -->
<g id="edge12" class="edge">
<title>JanusModule&#45;&gt;VideoBoxComponent </title>
<path fill="none" stroke="black" stroke-dasharray="5,2" d="M396.77,-173C304.11,-173 101.38,-173 101.38,-173 101.38,-173 101.38,-205.7 101.38,-205.7"/>
<polygon fill="black" stroke="black" points="97.88,-205.7 101.38,-215.7 104.88,-205.7 97.88,-205.7"/>
</g>
</g>
</svg>
